<svg width="100" height="100" xmlns="http://www.w3.org/2000/svg">
  <defs>
    <linearGradient id="gradient" x1="0%" y1="0%" x2="100%" y2="100%">
      <stop offset="0%" style="stop-color:#9c27b0;stop-opacity:1" />
      <stop offset="100%" style="stop-color:#673ab7;stop-opacity:1" />
    </linearGradient>
  </defs>
  <circle cx="50" cy="50" r="48" stroke="url(#gradient)" stroke-width="3" fill="#1a1a1a" />
  <path fill="#ffffff" d="M50,20 C35,20 30,32 30,40 C30,50 38,60 50,60 C62,60 70,50 70,40 C70,32 65,20 50,20 Z M40,45 C38,45 36,43 36,41 C36,39 38,37 40,37 C42,37 44,39 44,41 C44,43 42,45 40,45 Z M60,45 C58,45 56,43 56,41 C56,39 58,37 60,37 C62,37 64,39 64,41 C64,43 62,45 60,45 Z" />
  <path fill="#ffffff" d="M50,62 C42,62 36,65 36,69 L36,73 C36,75 40,76 50,76 C60,76 64,75 64,73 L64,69 C64,65 58,62 50,62 Z" />
  <circle cx="50" cy="78" r="4" fill="#9c27b0" />
  <path stroke="#9c27b0" stroke-width="2" d="M50,82 L50,90" />
</svg>
